HIERARCHY
ROOT Hips
{
    OFFSET   0.000000   0.000000   0.000000
    CHANNELS 6 Xposition Yposition Zposition Zrotation Xrotation Yrotation
    JOINT Chest
    {
        OFFSET   0.000000   8.007230   0.000000
        CHANNELS 3 Zrotation Xrotation Yrotation
        JOINT Chest2
        {
            OFFSET   0.000000  22.077100   0.000000
            CHANNELS 3 Zrotation Xrotation Yrotation
            JOINT Neck
            {
                OFFSET   0.000000  23.254800   0.000000
                CHANNELS 3 Zrotation Xrotation Yrotation
                JOINT Head
                {
                    OFFSET   0.000010  14.370000   1.956600
                    CHANNELS 3 Zrotation Xrotation Yrotation
                    End Site
                    {
                        OFFSET   0.000000  19.566000   0.000000
                    }
                }
            }
            JOINT LeftCollar
            {
                OFFSET   3.911900  19.017000  -0.467062
                CHANNELS 3 Zrotation Xrotation Yrotation
                JOINT LeftShoulder
                {
                    OFFSET  10.383700   0.000000   0.000000
                    CHANNELS 3 Zrotation Xrotation Yrotation
                    JOINT LeftElbow
                    {
                        OFFSET  26.662100   0.001193   0.000835
                        CHANNELS 3 Zrotation Xrotation Yrotation
                        JOINT LeftWrist
                        {
                            OFFSET  28.869000  -0.000058  -0.000075
                            CHANNELS 3 Zrotation Xrotation Yrotation
                            JOINT LeftFinger0
                            {
                                OFFSET   2.044660  -2.323460   3.252850
                                CHANNELS 3 Zrotation Xrotation Yrotation
                                JOINT LeftFinger01
                                {
                                    OFFSET   3.088130   0.000000   0.000000
                                    CHANNELS 3 Zrotation Xrotation Yrotation
                                    JOINT LeftFinger02
                                    {
                                        OFFSET   2.639450   0.000000   0.000000
                                        CHANNELS 3 Zrotation Xrotation Yrotation
                                        End Site
                                        {
                                            OFFSET   2.582190   0.000000   0.000000
                                        }
                                    }
                                }
                            }
                            JOINT LeftFinger1
                            {
                                OFFSET   8.364480   0.000000   3.252850
                                CHANNELS 3 Zrotation Xrotation Yrotation
                                JOINT LeftFinger11
                                {
                                    OFFSET   4.646920   0.000000   0.000000
                                    CHANNELS 3 Zrotation Xrotation Yrotation
                                    JOINT LeftFinger12
                                    {
                                        OFFSET   2.323460   0.000000   0.000000
                                        CHANNELS 3 Zrotation Xrotation Yrotation
                                        End Site
                                        {
                                            OFFSET   2.273050   0.000000   0.000000
                                        }
                                    }
                                }
                            }
                            JOINT LeftFinger2
                            {
                                OFFSET   8.364490   0.000016   1.078090
                                CHANNELS 3 Zrotation Xrotation Yrotation
                                JOINT LeftFinger21
                                {
                                    OFFSET   5.111620   0.000000   0.000000
                                    CHANNELS 3 Zrotation Xrotation Yrotation
                                    JOINT LeftFinger22
                                    {
                                        OFFSET   2.788150   0.000012   0.000000
                                        CHANNELS 3 Zrotation Xrotation Yrotation
                                        End Site
                                        {
                                            OFFSET   2.727660   0.000000   0.000000
                                        }
                                    }
                                }
                            }
                            JOINT LeftFinger3
                            {
                                OFFSET   7.899780   0.000014  -1.078090
                                CHANNELS 3 Zrotation Xrotation Yrotation
                                JOINT LeftFinger31
                                {
                                    OFFSET   4.646930   0.000000   0.000000
                                    CHANNELS 3 Zrotation Xrotation Yrotation
                                    JOINT LeftFinger32
                                    {
                                        OFFSET   2.323470   0.000000   0.000000
                                        CHANNELS 3 Zrotation Xrotation Yrotation
                                        End Site
                                        {
                                            OFFSET   2.273050   0.000000   0.000000
                                        }
                                    }
                                }
                            }
                            JOINT LeftFinger4
                            {
                                OFFSET   7.435090   0.000000  -3.252850
                                CHANNELS 3 Zrotation Xrotation Yrotation
                                JOINT LeftFinger41
                                {
                                    OFFSET   3.717550   0.000000   0.000000
                                    CHANNELS 3 Zrotation Xrotation Yrotation
                                    JOINT LeftFinger42
                                    {
                                        OFFSET   1.858770   0.000000   0.000000
                                        CHANNELS 3 Zrotation Xrotation Yrotation
                                        End Site
                                        {
                                            OFFSET   1.818440   0.000000   0.000000
                                        }
                                    }
                                }
                            }
                        }
                    }
                }
            }
            JOINT RightCollar
            {
                OFFSET  -3.911900  19.017000  -0.467063
                CHANNELS 3 Zrotation Xrotation Yrotation
                JOINT RightShoulder
                {
                    OFFSET -10.383700   0.000023   0.000000
                    CHANNELS 3 Zrotation Xrotation Yrotation
                    JOINT RightElbow
                    {
                        OFFSET -26.662100   0.001246   0.001011
                        CHANNELS 3 Zrotation Xrotation Yrotation
                        JOINT RightWrist
                        {
                            OFFSET -28.869000  -0.000026  -0.000078
                            CHANNELS 3 Zrotation Xrotation Yrotation
                            JOINT RightFinger0
                            {
                                OFFSET  -2.044660  -2.323490   3.252850
                                CHANNELS 3 Zrotation Xrotation Yrotation
                                JOINT RightFinger01
                                {
                                    OFFSET  -3.088130   0.000000   0.000000
                                    CHANNELS 3 Zrotation Xrotation Yrotation
                                    JOINT RightFinger02
                                    {
                                        OFFSET  -2.639460   0.000000   0.000000
                                        CHANNELS 3 Zrotation Xrotation Yrotation
                                        End Site
                                        {
                                            OFFSET  -2.582190   0.000000   0.000000
                                        }
                                    }
                                }
                            }
                            JOINT RightFinger1
                            {
                                OFFSET  -8.364480   0.000000   3.252850
                                CHANNELS 3 Zrotation Xrotation Yrotation
                                JOINT RightFinger11
                                {
                                    OFFSET  -4.646920   0.000000   0.000000
                                    CHANNELS 3 Zrotation Xrotation Yrotation
                                    JOINT RightFinger12
                                    {
                                        OFFSET  -2.323470   0.000000   0.000000
                                        CHANNELS 3 Zrotation Xrotation Yrotation
                                        End Site
                                        {
                                            OFFSET  -2.273050   0.000000   0.000000
                                        }
                                    }
                                }
                            }
                            JOINT RightFinger2
                            {
                                OFFSET  -8.364480   0.000000   1.078090
                                CHANNELS 3 Zrotation Xrotation Yrotation
                                JOINT RightFinger21
                                {
                                    OFFSET  -5.111620   0.000000   0.000000
                                    CHANNELS 3 Zrotation Xrotation Yrotation
                                    JOINT RightFinger22
                                    {
                                        OFFSET  -2.788160   0.000000   0.000000
                                        CHANNELS 3 Zrotation Xrotation Yrotation
                                        End Site
                                        {
                                            OFFSET  -2.727660   0.000000   0.000000
                                        }
                                    }
                                }
                            }
                            JOINT RightFinger3
                            {
                                OFFSET  -7.899780   0.000000  -1.078090
                                CHANNELS 3 Zrotation Xrotation Yrotation
                                JOINT RightFinger31
                                {
                                    OFFSET  -4.646930   0.000000   0.000000
                                    CHANNELS 3 Zrotation Xrotation Yrotation
                                    JOINT RightFinger32
                                    {
                                        OFFSET  -2.323470   0.000000   0.000000
                                        CHANNELS 3 Zrotation Xrotation Yrotation
                                        End Site
                                        {
                                            OFFSET  -2.273050   0.000000   0.000000
                                        }
                                    }
                                }
                            }
                            JOINT RightFinger4
                            {
                                OFFSET  -7.435090   0.000000  -3.252850
                                CHANNELS 3 Zrotation Xrotation Yrotation
                                JOINT RightFinger41
                                {
                                    OFFSET  -3.717550   0.000000   0.000000
                                    CHANNELS 3 Zrotation Xrotation Yrotation
                                    JOINT RightFinger42
                                    {
                                        OFFSET  -1.858760   0.000000   0.000000
                                        CHANNELS 3 Zrotation Xrotation Yrotation
                                        End Site
                                        {
                                            OFFSET  -1.818440   0.000000   0.000000
                                        }
                                    }
                                }
                            }
                        }
                    }
                }
            }
        }
    }
    JOINT LeftHip
    {
        OFFSET   9.783010   0.000000   0.000000
        CHANNELS 3 Zrotation Xrotation Yrotation
        JOINT LeftKnee
        {
            OFFSET   0.000073 -41.789100   0.001749
            CHANNELS 3 Zrotation Xrotation Yrotation
            JOINT LeftAnkle
            {
                OFFSET   0.000111 -41.133200  -0.000179
                CHANNELS 3 Zrotation Xrotation Yrotation
                JOINT LeftToe
                {
                    OFFSET   0.000000  -6.358960  14.674500
                    CHANNELS 3 Zrotation Xrotation Yrotation
                    End Site
                    {
                        OFFSET   0.000000   0.000000   3.913200
                    }
                }
            }
        }
    }
    JOINT RightHip
    {
        OFFSET  -9.783010   0.000000   0.000000
        CHANNELS 3 Zrotation Xrotation Yrotation
        JOINT RightKnee
        {
            OFFSET   0.000424 -41.789200   0.005205
            CHANNELS 3 Zrotation Xrotation Yrotation
            JOINT RightAnkle
            {
                OFFSET   0.000000 -41.133200  -0.000155
                CHANNELS 3 Zrotation Xrotation Yrotation
                JOINT RightToe
                {
                    OFFSET   0.000000  -6.358960  14.674500
                    CHANNELS 3 Zrotation Xrotation Yrotation
                    End Site
                    {
                        OFFSET   0.000000   0.000000   3.913200
                    }
                }
            }
        }
    }
}
MOTION
Frames: 4
Frame Time:   0.016667
  0.103947  89.579400   0.217673  -1.670370  -4.838150  -0.463195   0.366964   1.628370   0.060895   0.732646   3.257120   0.111418   0.404275   0.668041  -0.005850   0.664533   1.354740  -0.255378  -2.247330  -2.299960   0.294727 -78.718800  14.009300   3.556070  -0.370129  -1.551260 -13.608200  11.130300  -4.316200  -1.714670  39.130700  21.788900 -53.418400 -23.284800   0.000000   0.000072  -6.642390   0.013036  -0.001089 -25.336800   3.696130  -7.753120 -20.935200  -0.004402   0.002887 -14.654600   0.000221   0.002990 -26.146200  -1.281110   2.607710 -26.175400  -0.000563   0.002765 -17.432800  -0.001019   0.001627 -25.799200  -1.265290   2.615440 -25.828000  -0.000740   0.005256 -17.201500  -0.001534   0.002693 -28.586100  -1.392010   2.550840 -42.925700  -0.004792   0.002319 -28.588500  -0.008777  -0.000108   6.588950  -0.647724   4.286230  74.281000   2.967240  -7.146390   0.283095  -8.675180   7.895860 -11.751200  -2.304160   2.995210 -40.259600  31.959100  66.183800  27.544300  -0.008261  -0.010197   8.784390  -0.003471  -0.007751  23.914400   4.400060   9.815620  19.875700   0.001925  -0.003383  13.912900   0.000677  -0.002665  28.709600   1.027000   1.874870  39.475100  -0.006244  -0.001732  26.290500   0.010886   0.012194  28.307700   1.014140   1.881850  34.448700   0.001687   0.002031  22.942800   0.001860   0.000803  35.776600   0.057727   0.080871  53.664900  -0.005181  -0.000433  35.740800   0.000662  -0.000645   0.616800   7.037810   2.048050   1.828780   0.093496   2.757070  -0.998864  -3.264810   1.010370  -0.000000   0.000000   0.000000   3.555130   5.217600   1.535110  -1.482680   3.184820  -4.696130  -1.380310  -4.721430  -2.799770  -0.000000   0.000000   0.000000
  0.115105  89.579400   0.228539  -1.669680  -4.849780  -0.457049   0.366951   1.647010   0.051984   0.732865   3.294340   0.093467   0.409083   0.662875  -0.005843   0.672408   1.344270  -0.230811  -2.246250  -2.311130   0.320153 -78.719800  14.053100   3.549540  -0.398896  -1.584280 -13.651700  11.097800  -4.302840  -1.732200  39.139000  21.813200 -53.431000 -23.279500   0.000000   0.000036  -6.639730   0.013061  -0.001102 -25.335200   3.701190  -7.764370 -20.934900  -0.004418   0.002889 -14.654400   0.000206   0.003003 -26.165500  -1.284850   2.613230 -26.194800  -0.000471   0.002783 -17.445700  -0.000966   0.001661 -25.814100  -1.268850   2.621050 -25.843100  -0.000679   0.005338 -17.211500  -0.001499   0.002834 -28.576800  -1.394310   2.556860 -42.911900  -0.004728   0.002360 -28.579300  -0.008818  -0.000070   6.590850  -0.653350   4.314880  74.286900   2.980760  -7.135260   0.292659  -8.675320   7.910000 -11.756800  -2.291530   2.962990 -40.248600  31.949100  66.170800  27.549700  -0.008261  -0.010196   8.784540  -0.003467  -0.007746  23.925800   4.403450   9.817790  19.885300   0.001921  -0.003383  13.919700   0.000674  -0.002665  28.710000   1.019060   1.860340  39.477100  -0.006242  -0.001732  26.291800   0.010887   0.012194  28.308300   1.006220   1.867310  34.429800   0.001689   0.002027  22.930200   0.001858   0.000801  35.769300   0.057687   0.080844  53.653800  -0.005182  -0.000434  35.733500   0.000661  -0.000646   0.614216   7.049290   2.059380   1.823090   0.087131   2.760690  -0.999119  -3.249980   0.990481   0.000000   0.000000  -0.000000   3.549790   5.248910   1.503170  -1.491590   3.166730  -4.674600  -1.377110  -4.721940  -2.795670   0.000000   0.000000   0.000000
  0.133352  89.579500   0.247084  -1.668790  -4.867720  -0.448112   0.367048   1.676870   0.039224   0.733422   3.353970   0.067739   0.419497   0.654625  -0.005832   0.689573   1.327580  -0.201030  -2.244720  -2.322300   0.356908 -78.720800  14.122200   3.536570  -0.441890  -1.621970 -13.720700  11.048200  -4.278760  -1.759260  39.162200  21.849700 -53.446800 -23.269700   0.000000   0.000000  -6.634850   0.013120  -0.001114 -25.332500   3.706250  -7.775620 -20.932800  -0.004458   0.002891 -14.652900   0.000162   0.003037 -26.184600  -1.290960   2.623310 -26.214100  -0.000317   0.002814 -17.458600  -0.000878   0.001719 -25.828800  -1.274640   2.631290 -25.858100  -0.000579   0.005490 -17.221500  -0.001440   0.003097 -28.559400  -1.398580   2.567580 -42.886100  -0.004621   0.002428 -28.562100  -0.008907   0.000000   6.595090  -0.662080   4.356940  74.297300   3.005220  -7.118700   0.307204  -8.678060   7.924190 -11.763000  -2.278930   2.915520 -40.239100  31.936200  66.160600  27.557600  -0.008261  -0.010195   8.784690  -0.003464  -0.007738  23.949200   4.411540   9.824800  19.905200   0.001913  -0.003382  13.933600   0.000670  -0.002665  28.710400   1.011130   1.845800  39.491100  -0.006236  -0.001733  26.301100   0.010892   0.012192  28.309000   0.998304   1.852770  34.410900   0.001692   0.002016  22.917600   0.001852   0.000794  35.761900   0.057612   0.080780  53.642800  -0.005187  -0.000439  35.726100   0.000660  -0.000649   0.610163   7.080330   2.076890   1.810410   0.065912   2.766790  -0.999982  -3.233980   0.959956  -0.000000   0.000000   0.000000   3.541870   5.297720   1.458450  -1.504530   3.138230  -4.651760  -1.370560  -4.723590  -2.788190   0.000000   0.000000   0.000000
  0.147196  89.579600   0.262924  -1.670100  -4.879920  -0.443767   0.367223   1.698770   0.033040   0.733979   3.397730   0.055262   0.433115   0.647459  -0.005818   0.712035   1.313150  -0.194947  -2.244250  -2.322270   0.376121 -78.725300  14.172300   3.520590  -0.469386  -1.627280 -13.770200  11.012600  -4.253580  -1.777090  39.186600  21.874800 -53.445800 -23.261300   0.000000   0.000000  -6.630630   0.013213  -0.001112 -25.306500   3.697510  -7.765860 -20.910600  -0.004518   0.002886 -14.637400   0.000089   0.003088 -26.178300  -1.296710   2.636050 -26.208100  -0.000160   0.002849 -17.454600  -0.000786   0.001775 -25.816300  -1.280040   2.644180 -25.846000  -0.000482   0.005692 -17.213400  -0.001379   0.003441 -28.537500  -1.404190   2.580390 -42.853400  -0.004512   0.002496 -28.540400  -0.009036   0.000087   6.600820  -0.667719   4.380500  74.307000   3.031200  -7.108080   0.315582  -8.691180   7.914810 -11.762400  -2.280010   2.889960 -40.224400  31.923800  66.182800  27.561000  -0.008266  -0.010210   8.783440  -0.003464  -0.007731  23.980500   4.427000   9.842010  19.932500   0.001906  -0.003378  13.952700   0.000668  -0.002661  28.709600   1.023630   1.868450  39.551300  -0.006230  -0.001737  26.341100   0.010902   0.012189  28.308300   1.010620   1.875510  34.426600   0.001695   0.002000  22.928100   0.001846   0.000783  35.773300   0.057515   0.080685  53.660000  -0.005195  -0.000447  35.737600   0.000659  -0.000652   0.611903   7.147090   2.087890   1.792360   0.012867   2.773030  -1.001170  -3.232620   0.940553  -0.000000   0.000000  -0.000000   3.537670   5.330640   1.440260  -1.511200   3.118310  -4.650830  -1.362580  -4.726930  -2.778780  -0.000000   0.000000  -0.000000
